HIERARCHY
ROOT joint_Root
{
	OFFSET 0.0 0.0 0.0
	CHANNELS 6 Xposition Yposition Zposition Zrotation Xrotation Yrotation 
	JOINT Hips
	{
		OFFSET -0.726466 93.3139 -2.00062
		CHANNELS 6 Xposition Yposition Zposition Zrotation Xrotation Yrotation 
		JOINT Spine
		{
			OFFSET 15.7357 0.0 0.0
			CHANNELS 6 Xposition Yposition Zposition Zrotation Xrotation Yrotation 
			JOINT Chest
			{
				OFFSET 8.98455 -0.406207 0.0
				CHANNELS 6 Xposition Yposition Zposition Zrotation Xrotation Yrotation 
				JOINT Neck
				{
					OFFSET 16.3773 0.0 0.0
					CHANNELS 6 Xposition Yposition Zposition Zrotation Xrotation Yrotation 
					JOINT Head
					{
						OFFSET 6.45672 0.0 0.0
						CHANNELS 6 Xposition Yposition Zposition Zrotation Xrotation Yrotation 
						End Site
						{
							OFFSET 0.0 0.0 0.0
						}
					}
				}
				JOINT Shoulder_L
				{
					OFFSET 12.9942 -0.242716 4.98039
					CHANNELS 6 Xposition Yposition Zposition Zrotation Xrotation Yrotation 
					JOINT UpperArm_L
					{
						OFFSET 5.34809 0.0 0.0
						CHANNELS 6 Xposition Yposition Zposition Zrotation Xrotation Yrotation 
						JOINT LowerArm_L
						{
							OFFSET 24.3286 1.87007e-05 0.0
							CHANNELS 6 Xposition Yposition Zposition Zrotation Xrotation Yrotation 
							JOINT Hand_L
							{
								OFFSET 22.2916 0.0 0.0
								CHANNELS 6 Xposition Yposition Zposition Zrotation Xrotation Yrotation 
								End Site
								{
									OFFSET 0.0 0.0 0.0
								}
							}
						}
					}
				}
				JOINT Shoulder_R
				{
					OFFSET 12.9945 -0.242716 -4.98039
					CHANNELS 6 Xposition Yposition Zposition Zrotation Xrotation Yrotation 
					JOINT UpperArm_R
					{
						OFFSET -5.34813 0.0 0.0
						CHANNELS 6 Xposition Yposition Zposition Zrotation Xrotation Yrotation 
						JOINT LowerArm_R
						{
							OFFSET -24.3289 0.000322201 0.0
							CHANNELS 6 Xposition Yposition Zposition Zrotation Xrotation Yrotation 
							JOINT Hand_R
							{
								OFFSET -22.2915 -0.000108084 0.0
								CHANNELS 6 Xposition Yposition Zposition Zrotation Xrotation Yrotation 
								End Site
								{
									OFFSET 0.0 0.0 0.0
								}
							}
						}
					}
				}
			}
		}
		JOINT UpperLeg_L
		{
			OFFSET -2.19248 -6.46944 0.0
			CHANNELS 6 Xposition Yposition Zposition Zrotation Xrotation Yrotation 
			JOINT LowerLeg_L
			{
				OFFSET 39.0811 0.0 -1.23785e-05
				CHANNELS 6 Xposition Yposition Zposition Zrotation Xrotation Yrotation 
				JOINT Foot_L
				{
					OFFSET 40.9854 0.0 -1.26872e-05
					CHANNELS 6 Xposition Yposition Zposition Zrotation Xrotation Yrotation 
					JOINT Toes_L
					{
						OFFSET 11.7543 0.0 0.0
						CHANNELS 6 Xposition Yposition Zposition Zrotation Xrotation Yrotation 
						End Site
						{
							OFFSET 0.0 0.0 0.0
						}
					}
				}
			}
		}
		JOINT UpperLeg_R
		{
			OFFSET -2.19251 6.46944 0.0
			CHANNELS 6 Xposition Yposition Zposition Zrotation Xrotation Yrotation 
			JOINT LowerLeg_R
			{
				OFFSET -39.0811 -0.00228153 -0.0401928
				CHANNELS 6 Xposition Yposition Zposition Zrotation Xrotation Yrotation 
				JOINT Foot_R
				{
					OFFSET -40.9854 0.0 0.0
					CHANNELS 6 Xposition Yposition Zposition Zrotation Xrotation Yrotation 
					JOINT Toes_R
					{
						OFFSET -11.7543 0.0 0.0
						CHANNELS 6 Xposition Yposition Zposition Zrotation Xrotation Yrotation 
						End Site
						{
							OFFSET 0.0 0.0 0.0
						}
					}
				}
			}
		}
	}
}
MOTION
Frames:	6
Frame Time:	0.0333333
0.000000 0.000000 0.000000 0.000000 0.000000 -0.000000 -1.176530 92.019800 -2.477030 87.663400 -1.667660 5.664780 15.735700 0.000005 -0.000001 84.889100 84.527500 -84.313500 8.984550 -0.406207 -0.000000 3.141220 -0.997213 1.177290 16.377300 -0.000001 -0.000001 4.327730 -1.531550 2.074250 6.456720 -0.000001 -0.000000 3.883510 -0.453727 -2.235080 12.994200 -0.242716 4.980390 -90.180500 0.554033 -71.956500 5.348090 -0.000007 -0.000001 -66.108000 40.397600 -13.362100 24.328600 0.000019 0.000005 4.071400 8.090180 -26.829200 22.291600 -0.000001 0.000005 8.871650 5.654800 -15.491600 12.994500 -0.242716 -4.980390 87.835000 6.340060 -71.102000 -5.348130 -0.000001 -0.000004 -65.998600 32.595900 -13.967600 -24.328900 0.000322 -0.000009 0.801205 2.278500 -19.403300 -22.291500 -0.000108 -0.000004 6.245750 5.579280 -10.173400 -2.192480 -6.469440 -0.000000 -168.430000 -19.279500 -1.892350 39.081100 -0.000007 -0.000012 -0.174183 0.403332 23.357800 40.985400 -0.000006 -0.000013 -5.894470 0.332030 -63.333200 11.754300 -0.000000 0.000003 -0.000105 -0.001075 -16.618800 -2.192510 6.469440 -0.000001 173.576000 23.808800 -179.223000 -39.081100 -0.002282 -0.040193 -0.059421 0.169039 20.363300 -40.985400 0.000008 0.000006 -3.638330 3.773490 -62.807200 -11.754300 -0.000006 -0.000006 -0.003657 -0.047829 -18.518500
0.000000 0.000000 0.000000 0.000000 0.000000 -0.000000 -1.173990 92.016200 -2.485830 87.658500 -1.727800 5.697240 15.735700 0.000005 -0.000001 85.112600 84.532000 -84.553700 8.984550 -0.406207 -0.000000 3.135450 -0.953304 1.142880 16.377300 -0.000001 -0.000001 4.335310 -1.498610 2.098420 6.456720 -0.000001 -0.000000 3.898530 -0.460503 -2.245180 12.994200 -0.242716 4.980390 -90.182100 0.558773 -71.952800 5.348090 -0.000007 -0.000001 -65.566100 40.706400 -13.656500 24.328600 0.000019 0.000005 4.112390 8.028910 -27.237400 22.291600 -0.000001 0.000005 8.974930 5.655550 -15.569600 12.994500 -0.242716 -4.980390 87.831700 6.369340 -71.155600 -5.348130 -0.000001 -0.000004 -65.308000 32.727100 -14.507500 -24.328900 0.000322 -0.000009 0.739945 2.022270 -20.131100 -22.291500 -0.000108 -0.000004 6.128560 5.579450 -10.182500 -2.192480 -6.469440 -0.000000 -168.400000 -19.283000 -1.846150 39.081100 -0.000007 -0.000012 -0.175862 0.406955 23.371300 40.985400 -0.000006 -0.000013 -5.906560 0.323703 -63.350800 11.754300 -0.000000 0.000003 -0.000097 -0.000999 -16.615900 -2.192510 6.469440 -0.000001 173.569000 23.811000 -179.209000 -39.081100 -0.002282 -0.040193 -0.058825 0.167231 20.385800 -40.985400 0.000008 0.000006 -3.659840 3.837250 -62.804900 -11.754300 -0.000006 -0.000006 -0.003849 -0.049856 -18.601000
0.000000 0.000000 0.000000 0.000000 0.000000 -0.000000 -1.167760 92.013500 -2.491850 87.646300 -1.825360 5.786540 15.735700 0.000005 -0.000001 85.306100 84.523000 -84.757000 8.984550 -0.406207 -0.000000 3.156260 -0.917506 1.122350 16.377300 -0.000001 -0.000001 4.349250 -1.450490 2.076480 6.456720 -0.000001 -0.000000 3.982530 -0.449835 -2.206820 12.994200 -0.242716 4.980390 -90.184200 0.564485 -71.932200 5.348090 -0.000007 -0.000001 -64.719500 41.346300 -14.021800 24.328600 0.000019 0.000005 4.221280 8.000130 -27.938200 22.291600 -0.000001 0.000005 8.824350 5.656740 -15.695900 12.994500 -0.242716 -4.980390 87.832000 6.372290 -71.166500 -5.348130 -0.000001 -0.000004 -64.418400 32.634600 -15.246200 -24.328900 0.000322 -0.000009 0.531387 1.373810 -21.187500 -22.291500 -0.000108 -0.000004 6.119460 5.580820 -10.255900 -2.192480 -6.469440 -0.000000 -168.359000 -19.316000 -1.751520 39.081100 -0.000007 -0.000012 -0.175323 0.405013 23.407200 40.985400 -0.000006 -0.000013 -5.912310 0.253598 -63.377800 11.754300 -0.000000 0.000003 -0.000099 -0.001016 -16.616500 -2.192510 6.469440 -0.000001 173.533000 23.794100 -179.135000 -39.081100 -0.002282 -0.040193 -0.059048 0.167711 20.399100 -40.985400 0.000008 0.000006 -3.634590 3.937430 -62.793100 -11.754300 -0.000006 -0.000006 -0.003764 -0.048964 -18.564700
0.000000 0.000000 0.000000 0.000000 0.000000 -0.000000 -1.159320 92.009300 -2.502970 87.638500 -1.906610 5.871560 15.735700 0.000005 -0.000001 85.361900 84.515800 -84.822900 8.984550 -0.406207 -0.000000 3.171300 -0.907571 1.101960 16.377300 -0.000001 -0.000001 4.410050 -1.411790 2.104920 6.456720 -0.000001 -0.000000 4.002140 -0.433060 -2.231020 12.994200 -0.242716 4.980390 -90.185600 0.567695 -71.897600 5.348090 -0.000007 -0.000001 -63.408500 42.554800 -14.571800 24.328600 0.000019 0.000005 4.267360 7.766000 -28.907000 22.291600 -0.000001 0.000005 8.823050 5.659000 -15.945800 12.994500 -0.242716 -4.980390 87.827300 6.374320 -71.133600 -5.348130 -0.000001 -0.000004 -63.373600 32.017900 -16.174500 -24.328900 0.000322 -0.000009 0.589241 1.409480 -22.728000 -22.291500 -0.000108 -0.000004 6.349410 5.578970 -10.157200 -2.192480 -6.469440 -0.000000 -168.313000 -19.332200 -1.655340 39.081100 -0.000007 -0.000012 -0.176380 0.406915 23.434800 40.985400 -0.000006 -0.000013 -5.916080 0.245231 -63.403000 11.754300 -0.000000 0.000003 -0.000094 -0.000976 -16.615100 -2.192510 6.469440 -0.000001 173.504000 23.788000 -179.083000 -39.081100 -0.002282 -0.040193 -0.058874 0.166877 20.440300 -40.985400 0.000008 0.000006 -3.602500 3.998970 -62.794100 -11.754300 -0.000006 -0.000006 -0.003670 -0.047965 -18.524000
0.000000 0.000000 0.000000 0.000000 0.000000 -0.000000 -1.134950 92.002300 -2.533120 87.619700 -2.030090 5.956670 15.735700 0.000005 -0.000001 85.501100 84.499600 -84.972100 8.984550 -0.406207 -0.000000 3.205450 -0.883002 1.081650 16.377300 -0.000001 -0.000001 4.449280 -1.376140 2.140590 6.456720 -0.000001 -0.000000 4.062100 -0.413801 -2.193690 12.994200 -0.242716 4.980390 -90.185700 0.567296 -71.875100 5.348090 -0.000007 -0.000001 -61.299400 44.515000 -15.582100 24.328600 0.000019 0.000005 4.424690 7.615380 -30.279700 22.291600 -0.000001 0.000005 8.704360 5.662900 -16.403600 12.994500 -0.242716 -4.980390 87.821700 6.378650 -71.100100 -5.348130 -0.000001 -0.000004 -62.053700 30.952000 -17.281100 -24.328900 0.000322 -0.000009 0.638702 1.369570 -25.049600 -22.291500 -0.000108 -0.000004 6.631640 5.575160 -9.955660 -2.192480 -6.469440 -0.000000 -168.282000 -19.370300 -1.601870 39.081100 -0.000007 -0.000012 -0.175933 0.404140 23.525000 40.985400 -0.000006 -0.000013 -5.905520 0.180803 -63.451100 11.754300 -0.000000 0.000003 -0.000087 -0.000915 -16.612800 -2.192510 6.469440 -0.000001 173.490000 23.713800 -179.062000 -39.081100 -0.002282 -0.040193 -0.058476 0.165284 20.499900 -40.985400 0.000008 0.000006 -3.557900 4.059630 -62.790500 -11.754300 -0.000006 -0.000006 -0.003803 -0.049377 -18.581500
0.000000 0.000000 0.000000 0.000000 0.000000 -0.000000 -1.104110 91.998800 -2.585490 87.621600 -2.104730 6.001930 15.735700 0.000005 -0.000001 85.431500 84.495600 -84.914100 8.984550 -0.406207 -0.000000 3.212380 -0.896442 1.058920 16.377300 -0.000001 -0.000001 4.516170 -1.348980 2.168420 6.456720 -0.000001 -0.000000 4.052220 -0.406392 -2.161490 12.994200 -0.242716 4.980390 -90.194400 0.592040 -71.824100 5.348090 -0.000007 -0.000001 -58.405500 46.994800 -16.874600 24.328600 0.000019 0.000005 4.819650 7.583730 -32.574600 22.291600 -0.000001 0.000005 8.408860 5.665790 -16.774200 12.994500 -0.242716 -4.980390 87.825400 6.331450 -71.000000 -5.348130 -0.000001 -0.000004 -60.404100 29.678000 -18.725900 -24.328900 0.000322 -0.000009 0.294212 0.556600 -27.962500 -22.291500 -0.000108 -0.000004 6.774920 5.571760 -9.778910 -2.192480 -6.469440 -0.000000 -168.281000 -19.444900 -1.600880 39.081100 -0.000007 -0.000012 -0.176804 0.405038 23.582100 40.985400 -0.000006 -0.000013 -5.876100 0.194142 -63.454700 11.754300 -0.000000 0.000003 -0.000099 -0.001022 -16.616800 -2.192510 6.469440 -0.000001 173.461000 23.661300 -179.074000 -39.081100 -0.002282 -0.040193 -0.060477 0.170460 20.519300 -40.985400 0.000008 0.000006 -3.619870 4.120150 -62.745000 -11.754300 -0.000006 -0.000006 -0.003848 -0.049850 -18.600800
